<svg width="115" height="22" viewBox="0 0 115 22" fill="none" xmlns="http://www.w3.org/2000/svg">
<path d="M0 11.1089C0 4.45433 3.60461 0.417969 9.50308 0.417969C13.9815 0.417969 17.5862 3.14524 18.2415 7.18161C18.3508 7.61797 18.0231 7.94524 17.5862 7.94524H14.7462C14.4185 7.94524 14.2 7.72706 14.0908 7.39979C13.5446 5.32706 11.7969 4.01797 9.50308 4.01797C6.33538 4.01797 4.36923 6.74524 4.36923 11.1089C4.36923 15.4725 6.33538 18.1998 9.61231 18.1998C11.9062 18.1998 13.5446 16.9998 14.2 15.0362C14.3092 14.7089 14.5277 14.4907 14.8554 14.4907H17.6954C18.1323 14.4907 18.46 14.9271 18.3508 15.2543C17.6954 19.1816 14.2 21.7998 9.61231 21.7998C3.60462 21.7998 0 17.6543 0 11.1089Z" fill="white"/>
<path d="M26.5428 21.2546H23.3751C23.0474 21.2546 22.8289 21.0364 22.8289 20.7092V1.83643C22.8289 1.40007 23.2659 0.963703 23.7028 0.963703H31.3489C35.8274 0.963703 38.5582 3.47279 38.5582 7.40007C38.5582 9.69097 37.4659 11.7637 35.6089 12.8546C35.172 13.0728 35.0628 13.6182 35.2812 13.9455L38.6674 20.3819C38.8859 20.7092 38.5582 21.1455 38.2305 21.1455H34.6259C34.4074 21.1455 34.1889 21.0364 34.0797 20.8182L30.912 14.2728C30.8028 13.9455 30.4751 13.8364 30.1474 13.8364H27.6351C27.3074 13.8364 27.0889 14.0546 27.0889 14.3819V20.8182C27.1982 21.0364 26.8705 21.2546 26.5428 21.2546ZM27.1982 10.1273C27.1982 10.4546 27.4166 10.6728 27.7443 10.6728H31.0212C33.2059 10.6728 34.4074 9.47279 34.4074 7.50916C34.4074 5.54552 33.0966 4.34552 31.0212 4.34552H27.8535C27.5259 4.34552 27.3074 4.5637 27.3074 4.89098V10.1273H27.1982Z" fill="white"/>
<path d="M56.2537 21.2546H44.2383C43.8014 21.2546 43.4737 20.9273 43.4737 20.491V1.72734C43.4737 1.29098 43.8014 0.963703 44.2383 0.963703H56.2537C56.6906 0.963703 57.0183 1.29098 57.0183 1.72734V3.80007C57.0183 4.23643 56.6906 4.5637 56.2537 4.5637H48.2798C47.9521 4.5637 47.7337 4.78188 47.7337 5.10916V8.81825C47.7337 9.14552 47.9521 9.3637 48.2798 9.3637H55.7075C56.1445 9.3637 56.4721 9.69098 56.4721 10.1273V11.9819C56.4721 12.4182 56.1445 12.7455 55.7075 12.7455H48.2798C47.9521 12.7455 47.7337 12.9637 47.7337 13.291V17.4364C47.7337 17.7637 47.9521 17.9819 48.2798 17.9819H56.2537C56.6906 17.9819 57.0183 18.3092 57.0183 18.7455V20.8182C57.0183 20.9273 56.6906 21.2546 56.2537 21.2546Z" fill="white"/>
<path d="M73.1846 16.3455H66.9584C66.6307 16.3455 66.4123 16.5637 66.303 16.7819L65.1015 20.8182C64.9923 21.1455 64.7738 21.2546 64.4461 21.2546H61.6061C61.1692 21.2546 60.8415 20.8182 60.9507 20.3819L67.5046 1.40007C67.6138 1.18189 67.8323 0.963703 68.16 0.963703H72.2015C72.5292 0.963703 72.7476 1.18189 72.8569 1.40007L79.4107 20.3819C79.5199 20.8182 79.1923 21.2546 78.7553 21.2546H75.5876C75.2599 21.2546 75.0415 21.0364 74.9323 20.8182L73.7307 16.7819C73.7307 16.5637 73.403 16.3455 73.1846 16.3455ZM67.8323 13.1819H72.3107C72.5292 13.1819 72.6384 12.9637 72.6384 12.7455L70.2353 5.10916H70.0169L67.6138 12.7455C67.5046 12.9637 67.6138 13.1819 67.8323 13.1819Z" fill="white"/>
<path d="M86.2925 20.4914V5.00049C86.2925 4.67322 86.074 4.45504 85.7463 4.45504H80.9402C80.5033 4.45504 80.0663 4.12777 80.0663 3.58231V1.72777C80.0663 1.2914 80.394 0.855038 80.9402 0.855038H95.7955C96.2324 0.855038 96.6694 1.18231 96.6694 1.72777V3.58231C96.6694 4.01867 96.3417 4.45504 95.7955 4.45504H90.9894C90.6617 4.45504 90.4432 4.67322 90.4432 5.00049V20.6005C90.4432 21.0369 90.1155 21.3641 89.6786 21.3641H86.9479C86.6202 21.255 86.2925 20.9278 86.2925 20.4914Z" fill="white"/>
<path d="M113.381 21.2546H101.366C100.929 21.2546 100.601 20.9273 100.601 20.491V1.72734C100.601 1.29098 100.929 0.963703 101.366 0.963703H113.381C113.818 0.963703 114.146 1.29098 114.146 1.72734V3.80007C114.146 4.23643 113.818 4.5637 113.381 4.5637H105.408C105.08 4.5637 104.861 4.78188 104.861 5.10916V8.81825C104.861 9.14552 105.08 9.3637 105.408 9.3637H112.835C113.272 9.3637 113.6 9.69098 113.6 10.1273V11.9819C113.6 12.4182 113.272 12.7455 112.835 12.7455H105.408C105.08 12.7455 104.861 12.9637 104.861 13.291V17.4364C104.861 17.7637 105.08 17.9819 105.408 17.9819H113.381C113.818 17.9819 114.146 18.3092 114.146 18.7455V20.8182C114.146 20.9273 113.818 21.2546 113.381 21.2546Z" fill="white"/>
</svg>
