<svg width="52.000000" height="48.546875" viewBox="0 0 52 48.5469" fill="none" xmlns="http://www.w3.org/2000/svg" xmlns:xlink="http://www.w3.org/1999/xlink">
	<desc>
			Created with Pixso.
	</desc>
	<defs/>
	<path d="M50.4766 25.7969C51.3184 25.7969 52 25.1152 52 24.2734L52 12.8984C52 12.0566 51.3184 11.375 50.4766 11.375C49.415 11.375 28.668 11.375 27.5234 11.375L27.5234 1.52344C27.5234 0.681641 26.8418 0 26 0L9.75 0C8.9082 0 8.22656 0.681641 8.22656 1.52344L8.22656 11.375L1.52344 11.375C0.681641 11.375 0 12.0566 0 12.8984L0 24.2734C0 25.1152 0.681641 25.7969 1.52344 25.7969L8.22656 25.7969L8.22656 34.125L1.52344 34.125C0.681641 34.125 0 34.8066 0 35.6484L0 47.0234C0 47.8652 0.681641 48.5469 1.52344 48.5469L50.4766 48.5469C51.3184 48.5469 52 47.8652 52 47.0234L52 35.6484C52 34.8066 51.3184 34.125 50.4766 34.125L43.7734 34.125L43.7734 25.7969L50.4766 25.7969ZM48.9531 22.75C47.3232 22.75 37.2598 22.75 35.6484 22.75L35.6484 14.4219L48.9531 14.4219L48.9531 22.75ZM32.6016 22.75C31.0059 22.75 21.0049 22.75 19.3984 22.75L19.3984 14.4219L32.6016 14.4219L32.6016 22.75ZM11.2734 3.04688L24.4766 3.04688L24.4766 11.375C22.8809 11.375 12.8799 11.375 11.2734 11.375L11.2734 3.04688ZM3.04688 22.75L3.04688 14.4219L16.3516 14.4219L16.3516 22.75C14.7393 22.75 4.67676 22.75 3.04688 22.75ZM11.2734 25.7969L24.4766 25.7969L24.4766 34.125C22.8809 34.125 12.8799 34.125 11.2734 34.125L11.2734 25.7969ZM3.04688 37.1719L16.3516 37.1719L16.3516 45.5L3.04688 45.5L3.04688 37.1719ZM19.3984 37.1719L32.6016 37.1719L32.6016 45.5L19.3984 45.5L19.3984 37.1719ZM48.9531 37.1719L48.9531 45.5L35.6484 45.5L35.6484 37.1719L48.9531 37.1719ZM40.7266 34.125C39.1309 34.125 29.1299 34.125 27.5234 34.125L27.5234 25.7969L40.7266 25.7969L40.7266 34.125Z" fill="#FF5A30" fill-opacity="1.000000" fill-rule="nonzero"/>
</svg>
