<svg width="30.468750" height="30.468750" viewBox="0 0 30.4688 30.4688" fill="none" xmlns="http://www.w3.org/2000/svg" xmlns:xlink="http://www.w3.org/1999/xlink">
	<desc>
			Created with Pixso.
	</desc>
	<defs/>
	<path id="Vector" d="M28.9453 0L1.52344 0C0.681641 0 0 0.681641 0 1.52344L0 28.9453C0 29.7871 0.681641 30.4688 1.52344 30.4688L16.7578 30.4688C17.1621 30.4688 17.5488 30.3086 17.835 30.0234C18.1211 29.7363 18.2812 29.3496 18.2812 28.9453L18.2812 25.8984C18.2812 23.9121 19.5547 22.2188 21.3281 21.5898L21.3281 28.9453C21.3281 29.7871 22.0098 30.4688 22.8516 30.4688L28.9453 30.4688C29.7871 30.4688 30.4688 29.7871 30.4688 28.9453L30.4688 1.52344C30.4688 0.681641 29.7871 0 28.9453 0ZM27.4219 27.4219L24.375 27.4219L24.375 19.8047C24.375 18.9629 23.6934 18.2812 22.8516 18.2812C18.6514 18.2812 15.2344 21.6992 15.2344 25.8984L15.2344 27.4219L3.04688 27.4219L3.04688 18.2812L9.14062 18.2812L9.14062 22.8516C9.14062 23.6934 9.82227 24.375 10.6641 24.375C11.5059 24.375 12.1875 23.6934 12.1875 22.8516L12.1875 16.7578C12.1875 15.916 11.5059 15.2344 10.6641 15.2344L3.04688 15.2344L3.04688 3.04688L12.1875 3.04688L12.1875 9.14062L7.61719 9.14062C6.77539 9.14062 6.09375 9.82227 6.09375 10.6641C6.09375 11.5059 6.77539 12.1875 7.61719 12.1875L13.7109 12.1875L19.8047 12.1875C20.6465 12.1875 21.3281 11.5059 21.3281 10.6641C21.3281 9.82227 20.6465 9.14062 19.8047 9.14062L15.2344 9.14062L15.2344 3.04688L27.4219 3.04688L27.4219 27.4219Z" fill="#FF5A30" fill-opacity="1.000000" fill-rule="nonzero"/>
</svg>
