<svg width="52.000000" height="52.000000" viewBox="0 0 52 52" fill="none" xmlns="http://www.w3.org/2000/svg" xmlns:xlink="http://www.w3.org/1999/xlink">
	<desc>
			Created with Pixso.
	</desc>
	<defs/>
	<path d="M49.25 30.9492C50.29 29.543 50.4814 27.582 49.5361 25.9453L43.4453 15.2949C42.3916 13.4688 40.1699 12.6367 38.1885 13.166C38.6104 11.2695 37.7822 9.23438 36.0127 8.21289L25.458 2.11914C23.9512 1.25 22.1484 1.33789 20.7627 2.19531C19.96 0.880859 18.5107 0 16.8594 0L4.57031 0C2.0498 0 0 2.05078 0 4.57031C0 5.62695 0 46.2129 0 47.4297C0 49.9492 2.0498 52 4.57031 52C5.75391 52 41.6377 52 47.4297 52C49.9502 52 52 49.9492 52 47.4297L52 35.1406C52 33.2676 50.8672 31.6543 49.25 30.9492ZM18.3828 47.4297C18.3828 48.2695 17.6992 48.9531 16.8594 48.9531L4.57031 48.9531C3.73047 48.9531 3.04688 48.2695 3.04688 47.4297C3.04688 46.7344 3.04688 34.2852 3.04688 33.6172L18.3828 33.6172L18.3828 47.4297ZM18.3828 30.5703L3.04688 30.5703L3.04688 18.2812L18.3828 18.2812L18.3828 30.5703ZM18.3828 15.2344L3.04688 15.2344L3.04688 4.57031C3.04688 3.73047 3.73047 3.04688 4.57031 3.04688L16.8594 3.04688C17.6992 3.04688 18.3828 3.73047 18.3828 4.57031L18.3828 15.2344ZM21.4297 6.05078L21.8535 5.31641C22.2734 4.58789 23.207 4.33789 23.9346 4.75781L34.4893 10.8516C35.2168 11.2715 35.4668 12.2051 35.0459 12.9355L33.2852 15.9941C33.2412 16.0605 33.2012 16.127 33.168 16.1992L21.4297 36.6035L21.4297 6.05078ZM21.4297 42.7129L35.6709 17.959L38.6152 16.2578C39.3623 15.8262 40.3857 16.0879 40.8037 16.8125L46.8945 27.4629C47.3154 28.1934 47.0703 29.1289 46.333 29.5547C45.2451 30.1836 22.501 43.3516 21.4297 43.9707L21.4297 42.7129ZM48.9531 47.4297C48.9531 48.2695 48.2695 48.9531 47.4297 48.9531L21.168 48.9531C21.3301 48.4941 21.4209 48.0039 21.4277 47.4922L45.3955 33.6172L47.4297 33.6172C48.2695 33.6172 48.9531 34.3008 48.9531 35.1406L48.9531 47.4297Z" fill="#FFFFFF" fill-opacity="1.000000" fill-rule="nonzero"/>
</svg>
