<svg width="45.703125" height="52.000000" viewBox="0 0 45.7031 52" fill="none" xmlns="http://www.w3.org/2000/svg" xmlns:xlink="http://www.w3.org/1999/xlink">
	<desc>
			Created with Pixso.
	</desc>
	<defs/>
	<path id="Vector" d="M39.6094 4.57031C39.6094 2.05078 37.5586 0 35.0391 0L4.57031 0C2.05078 0 0 2.05078 0 4.57031L0 13.7109C0 16.2305 2.05078 18.2812 4.57031 18.2812L35.0391 18.2812C37.5586 18.2812 39.6094 16.2305 39.6094 13.7109L39.6094 12.1875L41.1328 12.1875C41.9727 12.1875 42.6562 12.8711 42.6562 13.7109L42.6562 19.8047C42.6562 20.6445 41.9727 21.3281 41.1328 21.3281L22.8516 21.3281C20.332 21.3281 18.2812 23.3789 18.2812 25.8984L18.2812 30.4688L16.7578 30.4688C15.916 30.4688 15.2344 31.1504 15.2344 31.9922L15.2344 38.0039L13.7109 44.1953C12.7207 48.1582 15.7139 52 19.8047 52C23.8975 52 26.8877 48.1523 25.9004 44.2012L24.375 38.0039L24.375 31.9922C24.375 31.1504 23.6934 30.4688 22.8516 30.4688L21.3281 30.4688L21.3281 25.8984C21.3281 25.0586 22.0117 24.375 22.8516 24.375L41.1328 24.375C43.6523 24.375 45.7031 22.3242 45.7031 19.8047L45.7031 13.7109C45.7031 11.1914 43.6523 9.14062 41.1328 9.14062L39.6094 9.14062L39.6094 4.57031ZM21.3281 33.5156L21.3281 36.6641L18.2812 36.6641L18.2812 33.5156L21.3281 33.5156ZM19.8047 48.9531C17.7061 48.9531 16.1543 46.9824 16.668 44.9297L17.9521 39.7109L21.6572 39.7109L22.9424 44.9336C23.4521 46.9746 21.9111 48.9531 19.8047 48.9531ZM4.57031 3.04688L35.0391 3.04688C35.8789 3.04688 36.5625 3.73047 36.5625 4.57031L36.5625 6.09375L31.9922 6.09375C30.5117 6.09375 28.6182 6.64844 26.4258 7.29102C23.4648 8.1582 20.1094 9.14062 16.7578 9.14062C13.4912 9.14062 11.1885 8.18555 9.15625 7.3457C7.60254 6.70117 6.13574 6.09375 4.57031 6.09375L3.04688 6.09375L3.04688 4.57031C3.04688 3.73047 3.73047 3.04688 4.57031 3.04688ZM36.5625 13.7109C36.5625 14.5508 35.8789 15.2344 35.0391 15.2344L4.57031 15.2344C3.73047 15.2344 3.04688 14.5508 3.04688 13.7109L3.04688 9.14062L4.57031 9.14062C5.5293 9.14062 6.61523 9.58984 7.99023 10.1602C10.1709 11.0625 12.8848 12.1875 16.7578 12.1875C20.5459 12.1875 24.2812 11.0938 27.2822 10.2148C29.168 9.66211 30.9492 9.14062 31.9922 9.14062L36.5625 9.14062L36.5625 13.7109Z" fill="#FF5A30" fill-opacity="1.000000" fill-rule="nonzero"/>
</svg>
