<svg width="20" height="20" viewBox="0 0 20 20" fill="none" xmlns="http://www.w3.org/2000/svg">
<path fill-rule="evenodd" clip-rule="evenodd" d="M18.2692 8.80648C18.1505 9.62875 17.8692 10.4103 17.4524 11.129C17.4836 11.3069 17.4996 11.4867 17.4996 11.6674C17.4996 12.2947 17.3179 12.8951 16.9811 13.4406C16.8131 13.7129 16.7698 14.032 16.7532 14.2428C16.7341 14.4844 16.7405 14.7487 16.7578 15.0026C16.7771 15.2875 16.8121 15.5866 16.8522 15.8688C16.527 15.774 16.1744 15.6787 15.838 15.6028C15.5581 15.5397 15.2718 15.4859 15.0124 15.4591C14.7862 15.4357 14.4593 15.4176 14.1669 15.5121C13.5277 15.7188 12.8243 15.834 12.0829 15.834C11.2014 15.834 10.3917 15.6775 9.68199 15.4057C9.51128 15.4135 9.33933 15.4174 9.16626 15.4174C8.16242 15.4174 7.19626 15.2854 6.29232 15.0414C7.60645 16.5613 9.77285 17.5007 12.0829 17.5007C12.9854 17.5007 13.8516 17.3622 14.6498 17.1075C14.6512 17.1076 14.6537 17.1075 14.6575 17.1075C14.678 17.1071 14.7349 17.1059 14.8412 17.1169C15.0084 17.1342 15.2233 17.1727 15.4712 17.2286C15.9649 17.34 16.5196 17.5043 16.9519 17.6415C17.8687 17.9325 18.757 17.1325 18.5931 16.2022C18.5226 15.8018 18.4494 15.3131 18.4206 14.8897C18.4061 14.6768 18.4046 14.5021 18.4147 14.3739C18.4189 14.3208 18.4242 14.2875 18.4276 14.2697C18.8965 13.4931 19.1663 12.6088 19.1663 11.6674C19.1663 10.6061 18.8367 9.63695 18.2692 8.80648Z" fill="#787A80"/>
<path fill-rule="evenodd" clip-rule="evenodd" d="M4.66386 4.7488C3.54057 5.60779 2.91633 6.7354 2.91633 7.91699C2.91633 8.50619 3.06971 9.07366 3.35748 9.60135C3.46709 9.80234 3.49818 10.0097 3.5093 10.15C3.52142 10.3031 3.51538 10.4603 3.50207 10.6074C3.47542 10.9019 3.41186 11.2356 3.33562 11.5642C3.24643 11.9486 3.13216 12.3586 3.0162 12.7435C3.4564 12.5835 3.93754 12.4195 4.39367 12.2865C4.76231 12.1789 5.13459 12.0856 5.46592 12.0332C5.75135 11.9881 6.16553 11.9437 6.52213 12.0671C7.3224 12.3439 8.21764 12.5003 9.16633 12.5003C10.9556 12.5003 12.5447 11.9448 13.6688 11.0852C14.7921 10.2262 15.4163 9.09859 15.4163 7.91699C15.4163 6.7354 14.7921 5.60779 13.6688 4.7488C12.5447 3.88922 10.9556 3.33366 9.16633 3.33366C7.37702 3.33366 5.78793 3.88922 4.66386 4.7488ZM3.65145 3.42487C5.09104 2.324 7.04362 1.66699 9.16633 1.66699C11.289 1.66699 13.2416 2.324 14.6812 3.42487C16.1216 4.52632 17.083 6.10704 17.083 7.91699C17.083 9.72694 16.1216 11.3077 14.6812 12.4091C13.2416 13.51 11.289 14.167 9.16633 14.167C8.04711 14.167 6.97805 13.9845 6.00739 13.6525C6.00641 13.6552 5.92769 13.6476 5.72623 13.6794C5.49402 13.7161 5.19761 13.7881 4.86045 13.8864C4.18922 14.0822 3.43543 14.3593 2.86128 14.5827C1.86659 14.9698 0.853291 14.0145 1.18842 12.9969C1.36605 12.4576 1.57554 11.776 1.71207 11.1875C1.78085 10.8911 1.82548 10.6418 1.84218 10.4572C1.84798 10.3932 1.84948 10.3465 1.84915 10.3149C1.46558 9.58191 1.24966 8.77136 1.24966 7.91699C1.24966 6.10704 2.21108 4.52632 3.65145 3.42487Z" fill="#787A80"/>
</svg>
