<svg width="20" height="20" viewBox="0 0 20 20" fill="none" xmlns="http://www.w3.org/2000/svg">
<path d="M10.834 5.41634C10.834 4.9561 10.4609 4.58301 10.0007 4.58301C9.54041 4.58301 9.16732 4.9561 9.16732 5.41634V9.99967C9.16732 10.2207 9.25511 10.4326 9.4114 10.5889L11.9114 13.0889C12.2368 13.4144 12.7645 13.4144 13.0899 13.0889C13.4153 12.7635 13.4153 12.2359 13.0899 11.9104L10.834 9.6545V5.41634Z" fill="#787A80"/>
<path fill-rule="evenodd" clip-rule="evenodd" d="M10.0007 0.833008C4.93804 0.833008 0.833984 4.93706 0.833984 9.99967C0.833984 15.0623 4.93804 19.1663 10.0007 19.1663C15.0633 19.1663 19.1673 15.0623 19.1673 9.99967C19.1673 4.93706 15.0633 0.833008 10.0007 0.833008ZM2.50065 9.99967C2.50065 5.85754 5.85851 2.49967 10.0007 2.49967C14.1428 2.49967 17.5006 5.85754 17.5006 9.99967C17.5006 14.1418 14.1428 17.4997 10.0007 17.4997C5.85851 17.4997 2.50065 14.1418 2.50065 9.99967Z" fill="#787A80"/>
</svg>
