<svg width="18" height="14" viewBox="0 0 18 14" fill="none" xmlns="http://www.w3.org/2000/svg">
<path d="M17.75 1.80963C17.1059 2.08291 16.4148 2.26824 15.6887 2.35098C16.4301 1.92586 16.9976 1.25154 17.2666 0.450512C16.5711 0.844209 15.8035 1.13008 14.9855 1.28505C14.3305 0.615969 13.3988 0.199219 12.3653 0.199219C10.3827 0.199219 8.77523 1.73844 8.77523 3.63576C8.77523 3.90485 8.80694 4.16767 8.86819 4.41899C5.88501 4.27552 3.23973 2.90699 1.46928 0.827453C1.1598 1.33426 0.983743 1.92479 0.983743 2.55516C0.983743 3.7478 1.618 4.80012 2.58033 5.41579C1.992 5.39695 1.43866 5.24198 0.954233 4.98439V5.02732C0.954233 6.69219 2.19213 8.08167 3.83353 8.39791C3.5328 8.47539 3.21568 8.51833 2.88761 8.51833C2.6558 8.51833 2.43161 8.49634 2.2118 8.45445C2.66889 9.8209 3.99429 10.8146 5.56463 10.8418C4.33657 11.7633 2.7881 12.3109 1.10624 12.3109C0.816463 12.3109 0.53103 12.2941 0.25 12.2638C1.83893 13.2407 3.7253 13.8103 5.75273 13.8103C12.3566 13.8103 15.9665 8.57279 15.9665 4.03053L15.9544 3.58552C16.6597 3.10382 17.2699 2.49862 17.75 1.80963Z" fill="white"/>
</svg>
